<mxfile host="app.diagrams.net" agent="Mozilla/5.0 (Windows NT 10.0; Win64; x64) AppleWebKit/537.36 (KHTML, like Gecko) Chrome/135.0.0.0 Safari/537.36" version="26.3.0">
  <diagram name="Page-1" id="xjGja7goKfKSCgqMYQ1x">
    <mxGraphModel dx="1892" dy="658" grid="1" gridSize="10" guides="1" tooltips="1" connect="1" arrows="1" fold="1" page="1" pageScale="1" pageWidth="850" pageHeight="1100" math="0" shadow="0">
      <root>
        <mxCell id="0" />
        <mxCell id="1" parent="0" />
        <mxCell id="nfWWjlg9oQDZ5O4VqrI9-6" value="" style="outlineConnect=0;dashed=0;verticalLabelPosition=bottom;verticalAlign=top;align=center;html=1;shape=mxgraph.aws3.dynamo_db;fillColor=#d80073;fontColor=#ffffff;strokeColor=#A50040;" vertex="1" parent="1">
          <mxGeometry x="-72" y="70" width="72" height="81" as="geometry" />
        </mxCell>
        <mxCell id="nfWWjlg9oQDZ5O4VqrI9-7" value="" style="outlineConnect=0;dashed=0;verticalLabelPosition=bottom;verticalAlign=top;align=center;html=1;shape=mxgraph.aws3.sns;fillColor=#d80073;fontColor=#ffffff;strokeColor=#A50040;" vertex="1" parent="1">
          <mxGeometry x="440.01" y="120" width="76.5" height="76.5" as="geometry" />
        </mxCell>
        <mxCell id="nfWWjlg9oQDZ5O4VqrI9-8" value="" style="outlineConnect=0;dashed=0;verticalLabelPosition=bottom;verticalAlign=top;align=center;html=1;shape=mxgraph.aws3.sqs;fillColor=#d80073;fontColor=#ffffff;strokeColor=#A50040;" vertex="1" parent="1">
          <mxGeometry x="200" y="88" width="76.5" height="93" as="geometry" />
        </mxCell>
        <mxCell id="nfWWjlg9oQDZ5O4VqrI9-9" value="" style="outlineConnect=0;dashed=0;verticalLabelPosition=bottom;verticalAlign=top;align=center;html=1;shape=mxgraph.aws3.lambda;fillColor=#d80073;fontColor=#ffffff;strokeColor=#A50040;" vertex="1" parent="1">
          <mxGeometry x="-6.5" y="350" width="76.5" height="93" as="geometry" />
        </mxCell>
        <mxCell id="nfWWjlg9oQDZ5O4VqrI9-10" value="" style="outlineConnect=0;dashed=0;verticalLabelPosition=bottom;verticalAlign=top;align=center;html=1;shape=mxgraph.aws3.sqs;fillColor=#d80073;fontColor=#ffffff;strokeColor=#A50040;" vertex="1" parent="1">
          <mxGeometry x="310" y="420" width="76.5" height="93" as="geometry" />
        </mxCell>
        <mxCell id="nfWWjlg9oQDZ5O4VqrI9-13" value="" style="edgeStyle=orthogonalEdgeStyle;html=1;endArrow=none;elbow=vertical;startArrow=block;startFill=1;strokeColor=#545B64;rounded=0;" edge="1" parent="1" source="nfWWjlg9oQDZ5O4VqrI9-10" target="nfWWjlg9oQDZ5O4VqrI9-7">
          <mxGeometry width="100" relative="1" as="geometry">
            <mxPoint x="380" y="340" as="sourcePoint" />
            <mxPoint x="480" y="340" as="targetPoint" />
          </mxGeometry>
        </mxCell>
        <mxCell id="nfWWjlg9oQDZ5O4VqrI9-17" value="" style="edgeStyle=orthogonalEdgeStyle;html=1;endArrow=none;elbow=vertical;startArrow=block;startFill=1;strokeColor=#545B64;rounded=0;" edge="1" parent="1" source="nfWWjlg9oQDZ5O4VqrI9-9" target="nfWWjlg9oQDZ5O4VqrI9-10">
          <mxGeometry width="100" relative="1" as="geometry">
            <mxPoint x="380" y="340" as="sourcePoint" />
            <mxPoint x="480" y="340" as="targetPoint" />
            <Array as="points">
              <mxPoint x="260" y="390" />
              <mxPoint x="260" y="467" />
            </Array>
          </mxGeometry>
        </mxCell>
        <mxCell id="nfWWjlg9oQDZ5O4VqrI9-18" value="&lt;font style=&quot;font-size: 14px;&quot;&gt;SNS-OrderTopic&lt;/font&gt;" style="text;strokeColor=none;align=center;fillColor=none;html=1;verticalAlign=middle;whiteSpace=wrap;rounded=0;" vertex="1" parent="1">
          <mxGeometry x="427.39" y="196.5" width="101.75" height="60" as="geometry" />
        </mxCell>
        <mxCell id="nfWWjlg9oQDZ5O4VqrI9-20" value="&lt;font style=&quot;font-size: 16px;&quot;&gt;SQS-OrderQueue&lt;/font&gt;" style="text;strokeColor=none;align=center;fillColor=none;html=1;verticalAlign=middle;whiteSpace=wrap;rounded=0;" vertex="1" parent="1">
          <mxGeometry x="305.75" y="520" width="85" height="40" as="geometry" />
        </mxCell>
        <mxCell id="nfWWjlg9oQDZ5O4VqrI9-23" value="&lt;font style=&quot;font-size: 16px;&quot;&gt;LambdaFunction-OrderFunction&lt;/font&gt;" style="text;strokeColor=none;align=center;fillColor=none;html=1;verticalAlign=middle;whiteSpace=wrap;rounded=0;" vertex="1" parent="1">
          <mxGeometry y="451.5" width="60" height="30" as="geometry" />
        </mxCell>
        <mxCell id="nfWWjlg9oQDZ5O4VqrI9-25" value="" style="edgeStyle=orthogonalEdgeStyle;html=1;endArrow=none;elbow=vertical;startArrow=block;startFill=1;strokeColor=#545B64;rounded=0;exitX=0.5;exitY=1;exitDx=0;exitDy=0;exitPerimeter=0;" edge="1" parent="1" source="nfWWjlg9oQDZ5O4VqrI9-6" target="nfWWjlg9oQDZ5O4VqrI9-9">
          <mxGeometry width="100" relative="1" as="geometry">
            <mxPoint x="90" y="220" as="sourcePoint" />
            <mxPoint x="480" y="330" as="targetPoint" />
            <Array as="points">
              <mxPoint x="-36" y="190" />
              <mxPoint x="50" y="190" />
              <mxPoint x="50" y="330" />
              <mxPoint x="-50" y="330" />
              <mxPoint x="-50" y="410" />
            </Array>
          </mxGeometry>
        </mxCell>
        <mxCell id="nfWWjlg9oQDZ5O4VqrI9-26" value="&lt;font style=&quot;font-size: 16px;&quot;&gt;DynamoDB- Orders&lt;/font&gt;" style="text;strokeColor=none;align=center;fillColor=none;html=1;verticalAlign=middle;whiteSpace=wrap;rounded=0;" vertex="1" parent="1">
          <mxGeometry x="-110" y="166.5" width="60" height="30" as="geometry" />
        </mxCell>
        <mxCell id="nfWWjlg9oQDZ5O4VqrI9-28" value="&lt;font style=&quot;font-size: 14px;&quot;&gt;Publish Message&lt;/font&gt;" style="text;strokeColor=none;align=center;fillColor=none;html=1;verticalAlign=middle;whiteSpace=wrap;rounded=0;rotation=-90;" vertex="1" parent="1">
          <mxGeometry x="420" y="340" width="80" height="30" as="geometry" />
        </mxCell>
        <mxCell id="nfWWjlg9oQDZ5O4VqrI9-29" value="&lt;font style=&quot;font-size: 14px;&quot;&gt;Queue then triggers lambda function&lt;/font&gt;" style="text;strokeColor=none;align=center;fillColor=none;html=1;verticalAlign=middle;whiteSpace=wrap;rounded=0;" vertex="1" parent="1">
          <mxGeometry x="120" y="400" width="101.75" height="30" as="geometry" />
        </mxCell>
        <mxCell id="nfWWjlg9oQDZ5O4VqrI9-31" value="" style="edgeStyle=orthogonalEdgeStyle;html=1;endArrow=none;elbow=vertical;startArrow=block;startFill=1;strokeColor=#545B64;rounded=0;entryX=0.5;entryY=0;entryDx=0;entryDy=0;entryPerimeter=0;exitX=0.5;exitY=1;exitDx=0;exitDy=0;exitPerimeter=0;" edge="1" parent="1" source="nfWWjlg9oQDZ5O4VqrI9-8" target="nfWWjlg9oQDZ5O4VqrI9-10">
          <mxGeometry width="100" relative="1" as="geometry">
            <mxPoint x="380" y="320" as="sourcePoint" />
            <mxPoint x="480" y="320" as="targetPoint" />
          </mxGeometry>
        </mxCell>
        <mxCell id="nfWWjlg9oQDZ5O4VqrI9-32" value="&lt;font style=&quot;font-size: 14px;&quot;&gt;If message failed 3 times it goes to DLQ&lt;/font&gt;" style="text;strokeColor=none;align=center;fillColor=none;html=1;verticalAlign=middle;whiteSpace=wrap;rounded=0;" vertex="1" parent="1">
          <mxGeometry x="210" y="310" width="140" height="30" as="geometry" />
        </mxCell>
        <mxCell id="nfWWjlg9oQDZ5O4VqrI9-34" value="SQS-OrderDLQ" style="text;strokeColor=none;align=center;fillColor=none;html=1;verticalAlign=middle;whiteSpace=wrap;rounded=0;fontSize=14;" vertex="1" parent="1">
          <mxGeometry x="188.25" y="210" width="100" height="30" as="geometry" />
        </mxCell>
        <mxCell id="nfWWjlg9oQDZ5O4VqrI9-39" value="&lt;font style=&quot;font-size: 14px;&quot;&gt;Order Content Passes through&lt;/font&gt;" style="text;strokeColor=none;align=center;fillColor=none;html=1;verticalAlign=middle;whiteSpace=wrap;rounded=0;rotation=-90;" vertex="1" parent="1">
          <mxGeometry x="-27" y="250" width="114" height="33.5" as="geometry" />
        </mxCell>
      </root>
    </mxGraphModel>
  </diagram>
</mxfile>
